<?xml version="1.0" standalone="no"?><!DOCTYPE svg PUBLIC "-//W3C//DTD SVG 1.1//EN" "http://www.w3.org/Graphics/SVG/1.1/DTD/svg11.dtd"><svg t="1661775144455" class="icon" viewBox="0 0 1024 1024" version="1.1" xmlns="http://www.w3.org/2000/svg" p-id="11118" xmlns:xlink="http://www.w3.org/1999/xlink" width="48" height="48"><path d="M128 64h288a64 64 0 0 1 64 64v288a64 64 0 0 1-64 64H128a64 64 0 0 1-64-64V128a64 64 0 0 1 64-64z m0 96v224a32 32 0 0 0 32 32h224a32 32 0 0 0 32-32V160a32 32 0 0 0-32-32H160a32 32 0 0 0-32 32zM128 544h288a64 64 0 0 1 64 64v288a64 64 0 0 1-64 64H128a64 64 0 0 1-64-64v-288a64 64 0 0 1 64-64z m0 96v224a32 32 0 0 0 32 32h224a32 32 0 0 0 32-32v-224a32 32 0 0 0-32-32H160a32 32 0 0 0-32 32z" fill="#026BFF" p-id="11119"></path><path d="M544 160m32 0l352 0q32 0 32 32l0 0q0 32-32 32l-352 0q-32 0-32-32l0 0q0-32 32-32Z" fill="#026BFF" p-id="11120"></path><path d="M544 640m32 0l352 0q32 0 32 32l0 0q0 32-32 32l-352 0q-32 0-32-32l0 0q0-32 32-32Z" fill="#026BFF" p-id="11121"></path><path d="M544 320m32 0l352 0q32 0 32 32l0 0q0 32-32 32l-352 0q-32 0-32-32l0 0q0-32 32-32Z" fill="#026BFF" p-id="11122"></path><path d="M544 800m32 0l352 0q32 0 32 32l0 0q0 32-32 32l-352 0q-32 0-32-32l0 0q0-32 32-32Z" fill="#026BFF" p-id="11123"></path></svg>